<?xml version="1.0" encoding="UTF-8" standalone="no"?>
<svg width="351px" height="48px" viewBox="0 0 351 48" version="1.1" xmlns="http://www.w3.org/2000/svg" xmlns:xlink="http://www.w3.org/1999/xlink" xmlns:sketch="http://www.bohemiancoding.com/sketch/ns">
    <!-- Generator: Sketch 3.4.2 (15855) - http://www.bohemiancoding.com/sketch -->
    <title>Slice 1 Copy</title>
    <desc>Created with Sketch.</desc>
    <defs></defs>
    <g id="Page-1" stroke="none" stroke-width="1" fill="none" fill-rule="evenodd" sketch:type="MSPage">
        <g id="logo_mfm" sketch:type="MSLayerGroup">
            <g id="Slice-1" sketch:type="MSShapeGroup">
                <g id="Page-1">
                    <g id="logo_mfm">
                        <g id="Page-1">
                            <g id="logo_MFM">
                                <g id="Group">
                                    <path d="M135.645,0.483 C133.017,0.881 131.045,1.83 129.398,3.478 C128.418,4.458 127.825,5.32 127.233,6.602 L126.823,7.485 L121.728,8.756 L116.633,10.027 L116.051,9.488 C114.92,8.411 113.207,7.484 111.516,7.032 C110.342,6.719 107.509,6.741 106.357,7.075 C101.876,8.367 98.881,12.106 98.677,16.629 C98.634,17.556 98.666,18.202 98.795,18.892 L98.956,19.861 L98.611,20.206 C98.418,20.39 96.715,22.005 94.82,23.793 L91.373,27.035 L90.942,26.96 C90.263,26.842 88.303,26.874 87.635,27.014 C87.28,27.09 86.946,27.112 86.86,27.057 C86.762,27.003 85.169,25.453 83.305,23.589 L79.922,20.217 L80.192,19.183 C80.547,17.827 80.59,15.79 80.289,14.476 C79.923,12.861 79.147,11.288 78.07,9.963 C75.948,7.357 72.232,5.891 68.871,6.333 C64.358,6.936 60.847,10.2 59.931,14.67 C59.641,16.038 59.738,18.171 60.136,19.549 C60.19,19.733 59.543,20.39 56.312,23.438 L52.413,27.101 L51.907,27.003 C51.175,26.853 48.924,26.885 48.169,27.046 L47.523,27.197 L43.828,23.567 L40.123,19.948 L40.327,19.15 C40.618,18.019 40.618,15.229 40.327,14.152 C39.304,10.35 36.406,7.474 32.658,6.537 C31.236,6.182 29.082,6.203 27.628,6.591 C23.459,7.701 20.433,11.191 19.904,15.499 C19.764,16.673 19.829,17.75 20.131,19.054 L20.347,19.959 L19.883,20.411 C17.611,22.651 12.72,27.122 12.591,27.079 C12.505,27.046 11.998,26.971 11.46,26.917 C8.563,26.615 5.6,27.628 3.445,29.653 C2.346,30.698 1.744,31.527 1.108,32.863 C0.397,34.371 0.149,35.491 0.149,37.258 C0.149,39.003 0.386,40.112 1.108,41.642 C1.689,42.871 2.077,43.441 3.014,44.432 C4.285,45.768 5.944,46.759 7.796,47.297 C8.54,47.513 8.873,47.545 10.532,47.534 C12.277,47.534 12.493,47.513 13.376,47.232 C15.412,46.607 17.34,45.326 18.601,43.753 C19.398,42.751 20.238,41.093 20.561,39.897 C20.884,38.669 20.959,36.644 20.723,35.384 C20.572,34.597 20.561,34.404 20.68,34.296 C20.755,34.22 22.543,32.551 24.644,30.568 L28.467,26.97 L30.266,26.981 L32.076,26.981 L36.073,30.902 C39.369,34.133 40.048,34.855 40.004,35.039 C39.972,35.168 39.886,35.718 39.821,36.256 C39.551,38.528 40.187,41.006 41.566,43.074 C42.934,45.121 45.11,46.65 47.587,47.329 C48.502,47.577 50.808,47.663 51.863,47.49 C55.773,46.866 58.983,44.001 60.146,40.091 C60.534,38.809 60.62,36.644 60.361,35.319 C60.178,34.458 60.189,34.415 60.373,34.242 C60.48,34.145 62.258,32.465 64.326,30.515 L68.096,26.971 L69.82,26.971 L71.554,26.971 L75.464,30.849 L79.363,34.727 L79.19,35.697 C78.749,38.152 79.47,41.158 81.021,43.334 C81.98,44.669 83.552,45.973 85.115,46.694 C86.666,47.405 87.387,47.546 89.488,47.535 C91.233,47.535 91.448,47.514 92.332,47.233 C96.845,45.854 99.84,41.847 99.829,37.205 C99.818,36.666 99.743,35.848 99.656,35.374 C99.559,34.899 99.473,34.415 99.473,34.296 C99.452,34.027 106.55,27.284 106.819,27.317 C106.917,27.328 107.444,27.392 108.005,27.457 C109.815,27.684 111.903,27.296 113.671,26.412 C115.815,25.335 117.57,23.472 118.582,21.188 C118.733,20.843 118.884,20.531 118.927,20.499 C118.959,20.467 121.254,19.863 124.033,19.174 L129.074,17.925 L129.612,18.442 C130.732,19.508 132.445,20.467 134.061,20.909 C134.761,21.103 135.181,21.146 136.721,21.146 C138.412,21.146 138.627,21.125 139.5,20.855 C141.363,20.284 143.076,19.239 144.271,17.947 C147.19,14.801 147.89,10.32 146.081,6.464 C145.823,5.915 145.392,5.161 145.134,4.795 C144.584,4.03 143.302,2.77 142.56,2.264 C141.719,1.693 140.125,0.982 139.145,0.745 C138.251,0.538 136.291,0.387 135.645,0.483 L135.645,0.483 L135.645,0.483 L135.645,0.483 Z M137.863,5.374 C138.629,5.514 139.845,6.117 140.47,6.666 C141.902,7.937 142.624,10.059 142.236,11.912 C142,13.021 141.579,13.808 140.782,14.648 C138.585,16.985 134.966,16.996 132.725,14.669 C130.624,12.482 130.689,9.035 132.886,6.881 C134.244,5.557 135.989,5.029 137.863,5.374 L137.863,5.374 L137.863,5.374 L137.863,5.374 Z M31.634,11.244 C33.584,11.762 35.221,13.463 35.641,15.391 C35.814,16.199 35.716,17.783 35.437,18.547 C34.985,19.785 33.897,21.003 32.668,21.616 C30.567,22.672 27.95,22.23 26.27,20.55 C22.801,17.082 25.247,11.093 30.137,11.082 C30.643,11.083 31.311,11.158 31.634,11.244 L31.634,11.244 L31.634,11.244 L31.634,11.244 Z M71.554,11.244 C71.899,11.342 72.426,11.546 72.728,11.707 C73.514,12.117 74.721,13.366 75.098,14.142 C76.154,16.35 75.722,18.85 74.01,20.551 C72.835,21.703 71.694,22.178 70.1,22.178 C68.505,22.178 67.364,21.703 66.19,20.551 C64.886,19.259 64.305,17.482 64.606,15.737 C64.961,13.626 66.599,11.795 68.602,11.256 C69.378,11.051 70.768,11.04 71.554,11.244 L71.554,11.244 L71.554,11.244 L71.554,11.244 Z M110.331,11.675 C111.344,11.934 112.098,12.375 112.873,13.129 C114.069,14.304 114.672,15.833 114.543,17.439 C114.436,18.925 113.897,20.056 112.776,21.123 C111.688,22.157 110.547,22.609 108.973,22.609 C107.347,22.609 106.076,22.059 104.955,20.885 C104.147,20.034 103.749,19.227 103.512,18.052 C102.748,14.174 106.485,10.685 110.331,11.675 L110.331,11.675 L110.331,11.675 L110.331,11.675 Z M11.986,31.926 C12.579,32.077 13.71,32.734 14.226,33.23 C16.564,35.47 16.607,38.993 14.313,41.244 C10.919,44.573 5.33,42.462 4.866,37.689 C4.597,34.845 6.881,32.088 9.778,31.776 C10.382,31.71 11.395,31.775 11.986,31.926 L11.986,31.926 L11.986,31.926 L11.986,31.926 Z M51.69,31.937 C52.67,32.228 53.467,32.723 54.189,33.477 C55.298,34.663 55.87,36.213 55.729,37.689 C55.341,41.729 51.216,44.034 47.586,42.235 C46.8,41.847 45.571,40.608 45.194,39.822 C44.386,38.164 44.386,36.44 45.183,34.813 C45.829,33.478 47.23,32.314 48.652,31.916 C49.375,31.721 50.99,31.732 51.69,31.937 L51.69,31.937 L51.69,31.937 L51.69,31.937 Z M91.427,32.077 C93.118,32.765 94.411,34.264 94.821,35.986 C95.123,37.29 94.971,38.583 94.369,39.842 C93.992,40.617 92.742,41.867 91.967,42.244 C90.243,43.073 88.391,43.052 86.807,42.212 C84.954,41.221 83.888,39.454 83.856,37.364 C83.835,34.897 85.299,32.83 87.659,32 C88.273,31.785 88.52,31.764 89.597,31.796 C90.555,31.829 90.964,31.894 91.427,32.077 L91.427,32.077 L91.427,32.077 L91.427,32.077 Z" id="Shape" fill="#000000"></path>
                                    <path d="M157.317,0.494 C157.274,0.526 157.242,11.126 157.242,24.03 L157.242,47.491 L163.866,47.491 L170.491,47.491 L170.512,35.297 L170.544,23.104 L177.05,35.297 L183.556,47.491 L187.671,47.491 L191.785,47.491 L198.346,35.232 L204.906,22.963 L204.938,35.232 L204.959,47.491 L211.691,47.491 L218.423,47.491 L218.423,23.955 L218.423,0.419 L211.141,0.44 L203.86,0.472 L195.857,15.638 L187.853,30.805 L187.573,30.287 C187.412,30.008 183.814,23.179 179.559,15.121 L171.825,0.472 L164.608,0.44 C160.635,0.43 157.35,0.451 157.317,0.494 L157.317,0.494 L157.317,0.494 L157.317,0.494 Z" id="Shape" fill="#000000"></path>
                                    <path d="M224.532,0.494 C224.489,0.526 224.457,11.126 224.457,24.03 L224.457,47.491 L231.243,47.491 L238.029,47.491 L238.029,40.92 L238.029,34.35 L248.8,34.35 L259.571,34.35 L259.571,28.479 L259.571,22.609 L248.8,22.609 L238.029,22.609 L238.029,17.384 L238.029,12.16 L254.563,12.16 L271.097,12.16 L271.097,6.29 L271.097,0.419 L247.852,0.419 C235.066,0.419 224.564,0.451 224.532,0.494 L224.532,0.494 L224.532,0.494 L224.532,0.494 Z" id="Shape" fill="#000000"></path>
                                    <path d="M277.205,0.494 C277.162,0.526 277.13,11.126 277.13,24.03 L277.13,47.491 L283.809,47.491 L290.487,47.491 L290.508,35.351 L290.54,23.222 L297.003,35.351 L303.467,47.491 L307.613,47.459 L311.76,47.437 L318.33,35.147 L324.9,22.857 L324.933,35.179 L324.954,47.492 L331.686,47.492 L338.417,47.492 L338.396,23.988 L338.364,0.473 L331.093,0.441 L323.822,0.42 L315.807,15.608 L307.793,30.796 L307.609,30.494 C307.512,30.333 303.904,23.503 299.585,15.306 L291.732,0.419 L284.494,0.419 C280.522,0.419 277.237,0.451 277.205,0.494 L277.205,0.494 L277.205,0.494 L277.205,0.494 Z" id="Shape" fill="#000000"></path>
                                    <path d="M341.661,4.706 C341.661,4.095 341.771,3.53 341.991,3.013 C342.212,2.496 342.512,2.048 342.891,1.671 C343.271,1.294 343.72,1 344.237,0.788 C344.755,0.577 345.31,0.471 345.905,0.471 C346.499,0.471 347.055,0.576 347.572,0.788 C348.09,1 348.54,1.294 348.923,1.671 C349.306,2.048 349.606,2.495 349.823,3.013 C350.04,3.53 350.148,4.095 350.148,4.706 C350.148,5.318 350.04,5.882 349.823,6.399 C349.605,6.917 349.305,7.363 348.923,7.741 C348.54,8.118 348.09,8.412 347.572,8.624 C347.055,8.836 346.499,8.941 345.905,8.941 C345.31,8.941 344.755,8.836 344.237,8.624 C343.72,8.413 343.271,8.118 342.891,7.741 C342.511,7.364 342.211,6.917 341.991,6.399 C341.771,5.882 341.661,5.318 341.661,4.706 L341.661,4.706 L341.661,4.706 L341.661,4.706 Z M342.716,4.706 C342.716,5.164 342.792,5.591 342.944,5.988 C343.095,6.385 343.311,6.733 343.591,7.03 C343.871,7.327 344.206,7.56 344.598,7.728 C344.99,7.897 345.425,7.981 345.906,7.981 C346.387,7.981 346.822,7.897 347.214,7.728 C347.606,7.56 347.942,7.327 348.222,7.03 C348.501,6.733 348.717,6.385 348.868,5.988 C349.019,5.591 349.096,5.164 349.096,4.706 C349.096,4.249 349.02,3.822 348.868,3.424 C348.717,3.027 348.501,2.68 348.222,2.382 C347.942,2.085 347.606,1.852 347.214,1.683 C346.822,1.515 346.387,1.43 345.906,1.43 C345.425,1.43 344.99,1.514 344.598,1.683 C344.206,1.852 343.871,2.085 343.591,2.382 C343.311,2.679 343.095,3.027 342.944,3.424 C342.792,3.822 342.716,4.249 342.716,4.706 L342.716,4.706 L342.716,4.706 L342.716,4.706 Z M346.677,5.118 L347.852,6.841 L346.557,6.841 L345.529,5.221 L345.383,5.221 L345.383,6.841 L344.217,6.841 L344.217,2.537 L345.846,2.537 C346.092,2.537 346.329,2.56 346.558,2.606 C346.787,2.652 346.988,2.726 347.162,2.829 C347.336,2.932 347.476,3.068 347.582,3.236 C347.688,3.404 347.741,3.612 347.741,3.858 C347.741,4.178 347.646,4.441 347.458,4.647 C347.27,4.853 347.009,4.996 346.678,5.075 L346.678,5.118 L346.677,5.118 L346.677,5.118 L346.677,5.118 L346.677,5.118 Z M345.382,3.343 L345.382,4.414 L345.699,4.414 C345.973,4.414 346.178,4.372 346.312,4.286 C346.446,4.2 346.513,4.057 346.513,3.857 C346.513,3.709 346.462,3.586 346.359,3.488 C346.256,3.391 346.085,3.342 345.845,3.342 L345.382,3.342 L345.382,3.343 L345.382,3.343 L345.382,3.343 L345.382,3.343 Z" id="Shape" fill="#FFFFFF"></path>
                                </g>
                            </g>
                        </g>
                    </g>
                </g>
            </g>
        </g>
    </g>
</svg>